<svg width="30" height="30" viewBox="0 0 30 30" fill="none" xmlns="http://www.w3.org/2000/svg">
<circle cx="15" cy="15" r="3" stroke="#3A3834" stroke-width="1.5"/>
<path d="M16.7658 5.15224C16.3983 5 15.9324 5 15.0005 5C14.0686 5 13.6027 5 13.2351 5.15224C12.7451 5.35523 12.3557 5.74458 12.1527 6.23463C12.0601 6.45834 12.0238 6.7185 12.0096 7.09799C11.9887 7.65568 11.7027 8.17189 11.2194 8.45093C10.7361 8.72996 10.1461 8.71954 9.65268 8.45876C9.31693 8.2813 9.07349 8.18262 8.83342 8.15102C8.30753 8.08178 7.77567 8.22429 7.35485 8.5472C7.03923 8.78938 6.80626 9.1929 6.34032 9.99993C5.87438 10.807 5.64141 11.2105 5.58948 11.6049C5.52025 12.1308 5.66276 12.6627 5.98566 13.0835C6.13305 13.2756 6.34019 13.437 6.66167 13.639C7.13429 13.936 7.43838 14.4419 7.43835 15C7.43832 15.5581 7.13424 16.0639 6.66167 16.3608C6.34013 16.5629 6.13297 16.7244 5.98557 16.9165C5.66266 17.3373 5.52015 17.8691 5.58938 18.395C5.64131 18.7894 5.87428 19.193 6.34022 20C6.80616 20.807 7.03913 21.2106 7.35475 21.4527C7.77557 21.7756 8.30743 21.9181 8.83333 21.8489C9.07338 21.8173 9.31681 21.7186 9.65253 21.5412C10.146 21.2804 10.736 21.27 11.2194 21.549C11.7027 21.8281 11.9887 22.3443 12.0096 22.9021C12.0238 23.2815 12.0601 23.5417 12.1527 23.7654C12.3557 24.2554 12.7451 24.6448 13.2351 24.8478C13.6027 25 14.0686 25 15.0005 25C15.9324 25 16.3983 25 16.7658 24.8478C17.2559 24.6448 17.6452 24.2554 17.8482 23.7654C17.9409 23.5417 17.9772 23.2815 17.9914 22.902C18.0122 22.3443 18.2982 21.8281 18.7815 21.549C19.2648 21.2699 19.8549 21.2804 20.3484 21.5412C20.6841 21.7186 20.9275 21.8172 21.1675 21.8488C21.6934 21.9181 22.2253 21.7756 22.6461 21.4527C22.9617 21.2105 23.1947 20.807 23.6606 19.9999C24.1266 19.1929 24.3595 18.7894 24.4115 18.395C24.4807 17.8691 24.3382 17.3372 24.0153 16.9164C23.8679 16.7243 23.6607 16.5628 23.3392 16.3608C22.8666 16.0639 22.5626 15.558 22.5626 14.9999C22.5626 14.4418 22.8667 13.9361 23.3392 13.6392C23.6608 13.4371 23.868 13.2757 24.0154 13.0835C24.3383 12.6627 24.4808 12.1309 24.4116 11.605C24.3596 11.2106 24.1267 10.807 23.6607 10C23.1948 9.19297 22.9618 8.78945 22.6462 8.54727C22.2254 8.22436 21.6935 8.08185 21.1676 8.15109C20.9276 8.18269 20.6841 8.28136 20.3484 8.4588C19.855 8.71959 19.2649 8.73002 18.7816 8.45096C18.2982 8.17191 18.0122 7.65566 17.9914 7.09794C17.9772 6.71848 17.9409 6.45833 17.8482 6.23463C17.6452 5.74458 17.2559 5.35523 16.7658 5.15224Z" stroke="#3A3834" stroke-width="1.5"/>
</svg>
